<svg width="16" height="16" viewBox="0 0 16 16" fill="none" xmlns="http://www.w3.org/2000/svg">
<path d="M7.32669 3.12V5.70667C7.32669 5.92085 7.28439 6.13292 7.20223 6.33071C7.12006 6.5285 6.99965 6.70812 6.84789 6.85926C6.69613 7.0104 6.51602 7.13008 6.3179 7.21143C6.11977 7.29278 5.90753 7.33421 5.69335 7.33333H3.12002C2.90642 7.33463 2.69476 7.29278 2.49772 7.2103C2.30069 7.12782 2.12233 7.00641 1.97335 6.85333C1.8224 6.70311 1.70281 6.52438 1.62155 6.32753C1.5403 6.13067 1.49898 5.91963 1.50002 5.70667V3.12667C1.50002 2.6964 1.67048 2.28366 1.9741 1.97879C2.27772 1.67392 2.68976 1.50176 3.12002 1.5H5.70002C5.9134 1.50021 6.12461 1.54274 6.32144 1.62513C6.51827 1.70752 6.69679 1.82814 6.84668 1.98C6.99865 2.12843 7.11939 2.30575 7.20182 2.50152C7.28426 2.6973 7.32671 2.90758 7.32669 3.12ZM14.4934 3.12667V5.70667C14.4899 6.13587 14.3183 6.5466 14.0154 6.85073C13.7126 7.15485 13.3025 7.32811 12.8734 7.33333H10.2867C9.85548 7.3307 9.44209 7.16104 9.13335 6.86C8.98249 6.70833 8.86303 6.52838 8.78181 6.33048C8.70059 6.13257 8.6592 5.92059 8.66002 5.70667V3.12667C8.6591 2.91312 8.70112 2.70158 8.78358 2.50459C8.86604 2.30761 8.98725 2.12921 9.14002 1.98C9.28991 1.82814 9.46844 1.70752 9.66527 1.62513C9.86209 1.54274 10.0733 1.50021 10.2867 1.5H12.8667C13.297 1.50348 13.7088 1.67598 14.0131 1.98029C14.3174 2.2846 14.4899 2.69633 14.4934 3.12667ZM14.4934 10.2933V12.8733C14.4899 13.3025 14.3183 13.7133 14.0154 14.0174C13.7126 14.3215 13.3025 14.4948 12.8734 14.5H10.2867C9.85274 14.5044 9.43419 14.3394 9.12002 14.04C8.96856 13.8888 8.84871 13.7089 8.76745 13.5109C8.68619 13.3129 8.64513 13.1007 8.64669 12.8867V10.3067C8.64581 10.0931 8.68785 9.88159 8.7703 9.68462C8.85276 9.48764 8.97395 9.30924 9.12669 9.16C9.2766 9.00817 9.45513 8.88757 9.65195 8.80518C9.84878 8.72279 10.06 8.68024 10.2734 8.68H12.8534C13.2837 8.68349 13.6954 8.85598 13.9997 9.16029C14.304 9.4646 14.4765 9.87633 14.48 10.3067L14.4934 10.2933ZM7.32669 10.3V12.88C7.32144 13.3103 7.14725 13.7214 6.8417 14.0244C6.53614 14.3275 6.12371 14.4983 5.69335 14.5H3.12002C2.90703 14.5009 2.69598 14.4596 2.49903 14.3785C2.30208 14.2974 2.12315 14.1781 1.97254 14.0275C1.82193 13.8769 1.70264 13.6979 1.62154 13.501C1.54044 13.304 1.49914 13.093 1.50002 12.88V10.3C1.50174 9.86964 1.67255 9.45721 1.97561 9.15165C2.27867 8.8461 2.68969 8.67191 3.12002 8.66667H5.70002C6.1323 8.67039 6.54607 8.8426 6.85335 9.14667C7.15741 9.45341 7.3276 9.8681 7.32669 10.3Z" fill="#FAC1D9"/>
</svg>
